<svg width="512" height="512" viewBox="0 0 512 512" fill="none" xmlns="http://www.w3.org/2000/svg">
<rect width="512" height="512" rx="256" fill="white"/>
<path fill-rule="evenodd" clip-rule="evenodd" d="M105.759 289.714H105.674H103.676H97.0091C92.8889 289.714 90.5369 285.011 93.0091 281.714L97.0091 276.381L98.2081 274.782L98.2591 274.714L274.287 40.0097L275.064 38.9738L278.037 35.0097L280.287 32.0097C283.17 28.1656 289.287 30.2046 289.287 35.0097V38.7597V43.7149V45.0097V222.286H414.143C418.264 222.286 420.616 226.99 418.143 230.286L230.865 479.99C227.982 483.834 221.865 481.795 221.865 476.99V289.714H105.759ZM274.287 222.286H226.865C224.104 222.286 221.865 224.524 221.865 227.286V274.714H117.009L274.287 65.0097V222.286Z" fill="black"/>
</svg>
