<svg width="512" height="512" viewBox="0 0 512 512" fill="none" xmlns="http://www.w3.org/2000/svg">
<rect width="512" height="512" rx="256" fill="black"/>
<path fill-rule="evenodd" clip-rule="evenodd" d="M105.759 289.721H105.674H103.676H97.0091C92.8888 289.721 90.5369 285.017 93.0091 281.721L97.0091 276.387L98.2081 274.788L98.2591 274.721L274.292 40.0097L275.069 38.9738L278.042 35.0097L280.292 32.0097C283.175 28.1656 289.292 30.2046 289.292 35.0097V38.7597V43.7149V45.0097V222.279H414.14C418.26 222.279 420.612 226.983 418.14 230.279L230.857 479.99C227.974 483.834 221.857 481.795 221.857 476.99V289.721H105.759ZM274.292 222.279H226.857C224.095 222.279 221.857 224.518 221.857 227.279V274.721H117.009L274.292 65.0097V222.279Z" fill="white"/>
</svg>
